<svg width="20" height="20" viewBox="0 0 20 20" fill="none" xmlns="http://www.w3.org/2000/svg">
<g id="ant-design:behance-outlined">
<path id="Vector" d="M12.3828 5.74805H16.2793V6.69336H12.3828V5.74805ZM8.47852 9.48828C9.33984 9.07617 9.79102 8.44922 9.79102 7.48047C9.79102 5.56445 8.36523 5.09961 6.71875 5.09961H2.1875V14.7168H6.8457C8.5918 14.7168 10.2305 13.877 10.2305 11.9238C10.2305 10.7168 9.66016 9.82422 8.47852 9.48828ZM4.30078 6.74023H6.2832C7.04688 6.74023 7.73242 6.95312 7.73242 7.83984C7.73242 8.65625 7.19922 8.98438 6.44336 8.98438H4.30078V6.74023ZM6.55664 13.084H4.29883V10.4355H6.60156C7.53125 10.4355 8.11914 10.8242 8.11914 11.8086C8.11914 12.7773 7.41797 13.084 6.55664 13.084ZM17.8027 11.3359C17.8027 9.27539 16.5977 7.55859 14.418 7.55859C12.2988 7.55859 10.8574 9.1543 10.8574 11.2461C10.8574 13.4141 12.2227 14.9023 14.418 14.9023C16.0801 14.9023 17.1562 14.1543 17.6738 12.5586H15.9883C15.8047 13.1543 15.0586 13.4668 14.4785 13.4668C13.3574 13.4668 12.7715 12.8105 12.7715 11.6953H17.7891C17.7949 11.5801 17.8027 11.459 17.8027 11.3359ZM12.7715 10.4883C12.832 9.57227 13.4434 9 14.3574 9C15.3184 9 15.7988 9.56445 15.8828 10.4883H12.7715Z" fill="white"/>
</g>
</svg>
